<?xml version="1.0"?>
<svg xmlns="http://www.w3.org/2000/svg" viewBox="0 0 512 512" width="512px" height="512px"><path d="m504.5 248.460938c-4.144531 0-7.5 3.355468-7.5 7.5 0 64.359374-25.066406 124.871093-70.585938 170.382812-45.519531 45.511719-106.039062 70.574219-170.414062 70.574219s-124.894531-25.0625-170.414062-70.574219c-45.515626-45.515625-70.585938-106.023438-70.585938-170.382812 0-64.363282 25.066406-124.875 70.585938-170.386719 45.519531-45.511719 106.039062-70.574219 170.414062-70.574219 58.585938 0 115.058594 21.269531 159.011719 59.890625 43.558593 38.269531 71.875 90.804687 79.730469 147.933594.5625 4.105469 4.363281 6.96875 8.449218 6.410156 4.105469-.5625 6.972656-4.347656 6.410156-8.453125-8.347656-60.695312-38.421874-116.511719-84.6875-157.160156-46.695312-41.027344-106.683593-63.621094-168.914062-63.621094-68.378906 0-132.667969 26.625-181.019531 74.96875-48.351563 48.34375-74.980469 112.621094-74.980469 180.992188 0 68.367187 26.628906 132.644531 74.980469 180.988281 48.351562 48.34375 112.640625 74.96875 181.019531 74.96875s132.667969-26.625 181.019531-74.96875c48.351563-48.34375 74.980469-112.621094 74.980469-180.988281 0-4.144532-3.355469-7.5-7.5-7.5zm0 0" fill="rgb(142,142,142)"/><path d="m299.308594 351.054688c-20.027344 12.636718-42.058594 20.792968-65.476563 24.242187-4.101562.605469-6.933593 4.417969-6.328125 8.515625.605469 4.097656 4.421875 6.929688 8.511719 6.324219 25.503906-3.753907 49.492187-12.636719 71.296875-26.398438 4.773438-3.011719 8.164062-7.566406 9.726562-12.8125 1.558594.128907 3.121094.238281 4.671876.316407 2.359374.128906 4.726562.179687 7.089843.179687 26.539063 0 52.363281-7.441406 74.6875-21.523437 5.566407-3.519532 8.890625-9.5625 8.890625-16.15625 0-22.339844-8.695312-43.320313-24.476562-59.078126-8.640625-8.640624-18.847656-15.140624-29.972656-19.273437 11.675781-8.835937 19.238281-22.835937 19.238281-38.574219 0-26.667968-21.699219-48.363281-48.371094-48.363281s-48.371094 21.695313-48.371094 48.363281c0 15.753906 7.578125 29.773438 19.277344 38.609375-10.914063 4.0625-20.96875 10.394531-29.371094 18.621094-8.683593-5.945313-18.125-10.5625-28.074219-13.75 17.238282-11.054687 28.699219-30.367187 28.699219-52.320313 0-34.257812-27.875-62.125-62.132812-62.125-34.261719 0-62.136719 27.867188-62.136719 62.125 0 21.972657 11.480469 41.300782 28.746094 52.347657-43.929688 14.140625-75.804688 55.390625-75.804688 103.953125 0 7.957031 4 15.230468 10.703125 19.460937 26.230469 16.550781 56.507813 26.253907 87.554688 28.066407.148437.007812.296875.011718.441406.011718 3.945313 0 7.25-3.078125 7.480469-7.0625.242187-4.136718-2.914063-7.683594-7.050782-7.925781-28.519531-1.660156-56.332031-10.574219-80.421874-25.773437-2.320313-1.46875-3.707032-4-3.707032-6.777344 0-51.929688 42.253906-94.175782 94.191406-94.175782 25.15625 0 48.816407 9.800782 66.617188 27.601563 17.785156 17.757813 27.578125 41.402344 27.578125 66.574219 0 2.777344-1.386719 5.308594-3.707031 6.777344-20.027344 12.636718 2.320312-1.46875 0 0zm-137.621094-163.078126c0-25.984374 21.144531-47.125 47.132812-47.125 25.992188 0 47.132813 21.140626 47.132813 47.125 0 25.984376-21.140625 47.125-47.132813 47.125-25.988281 0-47.132812-21.140624-47.132812-47.125zm167.109375-24.523437c18.398437 0 33.371094 14.964844 33.371094 33.363281 0 18.375-14.9375 33.328125-33.3125 33.359375-.015625 0-.035157 0-.054688 0-.027343 0-.050781 0-.078125 0-18.367187-.039062-33.296875-14.988281-33.296875-33.359375 0-18.398437 14.96875-33.363281 33.371094-33.363281zm-8.085937 82.207031c2.699218-.335937 5.425781-.480468 8.144531-.480468 18.292969.011718 35.496093 7.148437 48.449219 20.097656 12.941406 12.925781 20.074218 30.136718 20.074218 48.464844 0 1.421874-.714844 2.726562-1.902344 3.476562-19.914062 12.5625-42.972656 19.207031-66.675781 19.207031-2.105469 0-4.210937-.046875-6.3125-.164062-1.597656-.078125-3.199219-.191407-4.785156-.332031-1.953125-26.03125-13.023437-50.222657-31.664063-68.839844-1.25-1.25-2.53125-2.46875-3.832031-3.652344 10.621094-9.824219 24.191407-16.113281 38.503907-17.777344zm0 0" fill="rgb(142,142,142)"/></svg>
